<svg width="92" height="32" viewBox="0 0 92 32" fill="none" xmlns="http://www.w3.org/2000/svg">
<g clip-path="url(#clip0_3013_163)">
<path d="M2.93848 28.0253L6.71051 5.31592H15.5731C19.8152 5.31592 22.4063 6.8866 21.684 11.2169C21.363 13.2675 20.3884 14.9254 18.3018 15.8526V15.918C21.6267 16.3434 22.7388 18.5358 22.1999 21.699C21.4088 26.4547 16.8801 28.0253 12.5119 28.0253H2.93848ZM9.89782 23.4987H10.6889C12.5233 23.4987 15.596 23.586 16.0087 21.0882C16.4788 18.3504 13.3488 18.6231 11.3195 18.6231H10.6889L9.89782 23.4987ZM11.4571 14.2273H12.1564C13.8074 14.2273 15.5387 13.9547 15.8597 12.024C16.2036 9.9407 14.3119 9.82072 12.6265 9.82072H12.1794L11.4571 14.2273Z" fill="#4679BA"/>
<path d="M41.9999 27.5129H36.2444L36.531 25.8004H36.4622C35.201 27.3383 33.08 28.0255 31.1768 28.0255C26.3614 28.0255 23.6098 24.197 24.3665 19.7794C25.1002 15.351 29.0557 11.5552 33.8596 11.5552C35.7284 11.5552 37.5628 12.2205 38.5488 13.5731L38.8011 12.0678H44.5566L41.9999 27.5129ZM30.3169 19.8013C29.9729 21.7537 31.0736 23.2698 33.4239 23.2698C35.7628 23.2698 37.3794 21.7646 37.7234 19.8013C38.0444 17.9033 36.9323 16.3108 34.5934 16.3108C32.2545 16.3108 30.6379 17.9033 30.3169 19.8013Z" fill="#4679BA"/>
<path d="M53.8437 14.5437H53.9125C55.5635 12.6785 57.2718 12.0459 59.519 12.0459C63.8872 12.0459 65.1828 14.6637 64.5522 18.4704L62.97 28.0254H57.2145L58.4757 20.4883C58.6935 19.0158 59.3929 16.4198 56.5495 16.4198C54.2106 16.4198 53.259 18.0777 52.938 20.0084L51.608 28.0254H45.8525L48.4207 12.5586H54.1762L53.8437 14.5437Z" fill="#4679BA"/>
<path d="M74.1597 18.1432L81.0617 12.5695H88.9382L79.64 19.7139L86.886 28.0254H78.8145L73.5635 21.7318L72.5201 28.0254H66.7646L70.9036 3.02539H76.6591L74.1597 18.1432Z" fill="#4679BA"/>
<path d="M79.6401 19.7138L86.8861 28.0253H78.8376L77.37 26.291L73.5636 21.7316L73.5521 21.7862L71.9355 19.8774L74.1712 18.0885L74.1598 18.1431L79.514 13.8237L81.0733 12.5693H88.9383L79.6401 19.7138Z" fill="#003F72"/>
</g>
<defs>
<clipPath id="clip0_3013_163">
<rect width="86" height="25" fill="white" transform="translate(2.93848 3.02539)"/>
</clipPath>
</defs>
</svg>
